<?xml version="1.0" encoding="utf-8"?>
<!-- Generator: Adobe Illustrator 23.1.0, SVG Export Plug-In . SVG Version: 6.00 Build 0)  -->
<svg version="1.1" id="Capa_1" xmlns="http://www.w3.org/2000/svg" xmlns:xlink="http://www.w3.org/1999/xlink" x="0px" y="0px"
	 viewBox="0 0 345.43 127.44" style="enable-background:new 0 0 345.43 127.44;" xml:space="preserve">
<style type="text/css">
	.st0{fill:#FFFFFF;}
</style>
<g>
	<path class="st0" d="M114.31,70.73c0,1.7-0.56,3-1.67,3.91c-1.11,0.91-2.7,1.36-4.76,1.36h-1.69v6.09h-2.66V65.8h4.69
		c2.04,0,3.56,0.42,4.57,1.25C113.81,67.88,114.31,69.11,114.31,70.73 M106.19,73.75h1.42c1.37,0,2.37-0.24,3.01-0.71
		c0.64-0.47,0.96-1.21,0.96-2.23c0-0.94-0.29-1.63-0.86-2.1c-0.57-0.46-1.46-0.69-2.67-0.69h-1.85V73.75z"/>
	<path class="st0" d="M125.67,82.09l-0.37-1.61h-0.13c-0.37,0.57-0.88,1.02-1.55,1.35c-0.67,0.33-1.44,0.49-2.3,0.49
		c-1.49,0-2.61-0.37-3.34-1.12c-0.74-0.74-1.1-1.87-1.1-3.38v-8.05h2.64v7.6c0,0.94,0.2,1.65,0.58,2.12
		c0.39,0.47,0.99,0.71,1.82,0.71c1.1,0,1.9-0.33,2.42-0.99c0.52-0.66,0.77-1.76,0.77-3.3v-6.14h2.63v12.32H125.67z"/>
	<path class="st0" d="M136.7,82.31c-1.92,0-3.42-0.56-4.49-1.68c-1.08-1.12-1.62-2.66-1.62-4.62c0-2.01,0.5-3.6,1.51-4.75
		c1-1.15,2.38-1.73,4.13-1.73c1.63,0,2.91,0.49,3.86,1.48c0.94,0.99,1.42,2.35,1.42,4.08v1.42h-8.21c0.04,1.19,0.36,2.11,0.97,2.75
		c0.61,0.65,1.47,0.96,2.57,0.96c0.73,0,1.4-0.07,2.03-0.21c0.63-0.14,1.3-0.36,2.02-0.68v2.13c-0.64,0.31-1.29,0.52-1.94,0.65
		C138.29,82.25,137.54,82.31,136.7,82.31 M136.22,71.53c-0.83,0-1.5,0.27-2,0.79c-0.5,0.53-0.8,1.29-0.9,2.31h5.6
		c-0.02-1.02-0.26-1.79-0.73-2.31C137.7,71.79,137.05,71.53,136.22,71.53"/>
	<path class="st0" d="M150.68,69.54c1.53,0,2.73,0.56,3.59,1.67c0.86,1.11,1.29,2.68,1.29,4.69c0,2.02-0.43,3.6-1.3,4.72
		c-0.87,1.12-2.08,1.69-3.62,1.69c-1.56,0-2.77-0.56-3.63-1.68h-0.18l-0.48,1.46h-1.96V64.76H147v4.12c0,0.3-0.01,0.75-0.04,1.36
		c-0.03,0.6-0.05,0.99-0.07,1.15H147C147.83,70.16,149.06,69.54,150.68,69.54 M150,71.68c-1.05,0-1.82,0.31-2.28,0.93
		c-0.46,0.62-0.7,1.66-0.72,3.11v0.18c0,1.5,0.24,2.59,0.71,3.26c0.48,0.67,1.25,1.01,2.33,1.01c0.93,0,1.63-0.37,2.11-1.1
		c0.48-0.74,0.72-1.8,0.72-3.18C152.87,73.08,151.91,71.68,150,71.68"/>
	<rect x="158.5" y="64.76" class="st0" width="2.62" height="17.33"/>
	<path class="st0" d="M175.65,75.9c0,2.01-0.51,3.58-1.55,4.71c-1.03,1.13-2.47,1.69-4.31,1.69c-1.15,0-2.17-0.26-3.05-0.78
		c-0.88-0.52-1.56-1.27-2.04-2.24c-0.48-0.97-0.71-2.1-0.71-3.39c0-2,0.51-3.55,1.53-4.68c1.03-1.12,2.47-1.68,4.33-1.68
		c1.78,0,3.2,0.57,4.24,1.72C175.13,72.41,175.65,73.96,175.65,75.9 M166.69,75.9c0,2.85,1.05,4.27,3.15,4.27
		c2.08,0,3.12-1.42,3.12-4.27c0-2.81-1.05-4.22-3.14-4.22c-1.1,0-1.89,0.36-2.39,1.09C166.93,73.5,166.69,74.55,166.69,75.9"/>
	<path class="st0" d="M194.15,65.8h2.76l-5.7,16.29h-2.81l-5.68-16.29h2.74l3.4,10.13c0.18,0.48,0.37,1.1,0.57,1.86
		c0.2,0.76,0.33,1.33,0.39,1.7c0.1-0.56,0.25-1.22,0.45-1.96s0.36-1.29,0.49-1.65L194.15,65.8z"/>
	<path class="st0" d="M203.3,82.31c-1.91,0-3.41-0.56-4.49-1.68c-1.08-1.12-1.62-2.66-1.62-4.62c0-2.01,0.5-3.6,1.5-4.75
		c1-1.15,2.38-1.73,4.13-1.73c1.63,0,2.91,0.49,3.85,1.48c0.94,0.99,1.42,2.35,1.42,4.08v1.42h-8.21c0.04,1.19,0.36,2.11,0.97,2.75
		c0.61,0.65,1.47,0.96,2.57,0.96c0.73,0,1.4-0.07,2.03-0.21c0.63-0.14,1.3-0.36,2.02-0.68v2.13c-0.64,0.31-1.28,0.52-1.94,0.65
		C204.89,82.25,204.14,82.31,203.3,82.31 M202.82,71.53c-0.83,0-1.5,0.27-2,0.79c-0.5,0.53-0.8,1.29-0.9,2.31h5.6
		c-0.02-1.02-0.26-1.79-0.74-2.31C204.31,71.79,203.65,71.53,202.82,71.53"/>
	<path class="st0" d="M217.24,69.54c0.52,0,0.96,0.04,1.3,0.11l-0.26,2.44c-0.37-0.09-0.76-0.13-1.16-0.13
		c-1.05,0-1.9,0.34-2.55,1.02c-0.65,0.68-0.97,1.57-0.97,2.66v6.44h-2.62V69.77h2.05l0.34,2.17h0.14c0.4-0.74,0.93-1.32,1.59-1.75
		C215.77,69.76,216.47,69.54,217.24,69.54"/>
	<path class="st0" d="M224.82,82.31c-1.54,0-2.74-0.56-3.6-1.67c-0.86-1.12-1.29-2.68-1.29-4.69c0-2.02,0.43-3.59,1.31-4.72
		c0.88-1.13,2.08-1.69,3.63-1.69c1.62,0,2.85,0.6,3.7,1.8h0.13c-0.12-0.89-0.19-1.58-0.19-2.1v-4.49h2.63v17.33h-2.05l-0.45-1.61
		h-0.12C227.67,81.7,226.44,82.31,224.82,82.31 M225.52,80.2c1.08,0,1.86-0.3,2.35-0.91c0.49-0.61,0.74-1.59,0.76-2.94v-0.37
		c0-1.55-0.25-2.66-0.76-3.31c-0.51-0.65-1.3-0.98-2.37-0.98c-0.92,0-1.63,0.38-2.13,1.12c-0.49,0.75-0.74,1.81-0.74,3.19
		c0,1.36,0.24,2.41,0.73,3.12C223.83,79.84,224.56,80.2,225.52,80.2"/>
	<path class="st0" d="M240.1,82.31c-1.92,0-3.41-0.56-4.49-1.68c-1.08-1.12-1.62-2.66-1.62-4.62c0-2.01,0.5-3.6,1.5-4.75
		c1.01-1.15,2.38-1.73,4.13-1.73c1.63,0,2.91,0.49,3.85,1.48c0.95,0.99,1.42,2.35,1.42,4.08v1.42h-8.21
		c0.04,1.19,0.36,2.11,0.97,2.75c0.61,0.65,1.47,0.96,2.57,0.96c0.73,0,1.41-0.07,2.04-0.21c0.63-0.14,1.3-0.36,2.02-0.68v2.13
		c-0.64,0.31-1.29,0.52-1.94,0.65C241.69,82.25,240.94,82.31,240.1,82.31 M239.62,71.53c-0.83,0-1.5,0.27-2,0.79
		c-0.5,0.53-0.8,1.29-0.9,2.31h5.6c-0.02-1.02-0.26-1.79-0.73-2.31C241.11,71.79,240.46,71.53,239.62,71.53"/>
	<path class="st0" d="M53.34,33.12c2.29-3.11,4.49-6.28,6.94-9.25c3.5-4.23,7.21-8.25,10.35-12.79c2.69-3.9,5.95-7.4,8.96-11.08
		h-13.7c-2.22,5.01-4.28,10.13-6.23,15.29c-2.72,7.26-5.84,14.26-9.08,21.18h1.44c0.18-0.57,0.36-1.15,0.54-1.72
		C52.76,34.19,52.99,33.6,53.34,33.12"/>
	<path class="st0" d="M58.91,14.76c1.7-4.07,3.23-8.23,4.96-12.28c0.35-0.83,0.71-1.65,1.07-2.48H51.65
		c-2.03,6.83-4.06,13.67-5.97,20.53c-0.04,0.11-0.06,0.22-0.09,0.34v15.61h3.87c0.99-2.18,1.99-4.35,2.95-6.54
		C54.63,24.91,56.79,19.84,58.91,14.76"/>
	<path class="st0" d="M50.47,0h-4.88v16.22c0.27-0.91,0.54-1.83,0.81-2.75C47.73,8.97,49.09,4.49,50.47,0"/>
	<path class="st0" d="M82.07,36.48v-2.97c-1.7,0.99-3.38,1.98-5.07,2.97H82.07z"/>
	<path class="st0" d="M80.92,0c-0.97,1.16-1.93,2.32-2.87,3.51c-4.74,6-9.43,12.04-14.16,18.05c-2.32,2.96-4.7,5.87-7.03,8.82
		c-0.56,0.72-1.35,1.49-1.43,2.3c-0.14,1.35-0.54,2.59-1.05,3.79h1.11c4.27-4.31,8.9-8.44,13.97-12.32
		c4.17-3.2,8.39-6.37,12.62-9.53V0H80.92z"/>
	<path class="st0" d="M63.37,36.48c2.32-1.57,4.65-3.12,6.98-4.68c3.87-2.58,7.78-5.12,11.72-7.63v-7.39
		C73.92,23,66.33,29.53,59.44,36.48H63.37z"/>
	<path class="st0" d="M74.5,36.48c1.03-0.65,2.06-1.3,3.08-1.97c1.44-0.94,2.95-1.77,4.48-2.56v-5.49
		c-4.87,3.34-9.73,6.68-14.6,10.02H74.5z"/>
	<path class="st0" d="M29.87,55.74C21.19,45.83,11.13,36.75,0,28.26v7.38c3.89,2.49,7.77,5,11.61,7.56
		C17.76,47.31,23.93,51.41,29.87,55.74"/>
	<path class="st0" d="M28.61,50.05c-0.98-1.86-1.85-3.77-2.08-5.96c-0.08-0.81-0.87-1.59-1.43-2.3c-2.33-2.96-4.71-5.87-7.03-8.83
		c-4.73-6.01-9.41-12.05-14.16-18.05c-0.63-0.8-1.28-1.58-1.93-2.36C0.75,14.12,0,16.09,0,18.24v7.88
		c4.19,3.13,8.37,6.28,12.51,9.44C18.43,40.09,23.77,44.94,28.61,50.05"/>
	<path class="st0" d="M2.68,11.78c2.92,3.54,6.05,6.94,8.65,10.71c3.13,4.55,6.86,8.56,10.35,12.79c2.45,2.97,4.66,6.14,6.95,9.25
		c0.35,0.47,0.58,1.07,0.77,1.64c0.6,1.8,1.1,3.65,1.75,5.43c0.27,0.74,0.58,1.47,0.89,2.2c1.38,1.57,2.72,3.16,4.01,4.78
		c-0.42-2.13-1.48-3.97-2.39-5.86c-4.07-8.49-8-17.06-11.36-26.01c-2.24-5.96-4.65-11.84-7.25-17.59H9.12
		c-2.89,0-5.46,1.34-7.13,3.44C2.21,12.29,2.44,12.02,2.68,11.78"/>
	<path class="st0" d="M23.06,26.16c2.12,5.09,4.27,10.15,6.49,15.18c2.37,5.38,4.88,10.68,7.22,16.08c0.33,0.76,0.38,1.69,0.43,2.62
		c0.41,0.53,0.83,1.04,1.22,1.57c0.22,0.3,0.53,0.58,0.81,0.87c0-0.22-0.01-0.46-0.01-0.66c0.03-1.32-0.03-2.64,0.05-3.95
		c0.26-4.13,0.13-8.22-0.32-12.27h-2.47V32.67c-0.07-0.24-0.13-0.48-0.19-0.73c-2.13-7.63-4.39-15.23-6.66-22.82H16.03
		c0.69,1.59,1.38,3.17,2.06,4.77C19.83,17.93,21.36,22.1,23.06,26.16"/>
	<path class="st0" d="M36.48,27.98V9.12H30.8c1.61,5.25,3.21,10.5,4.76,15.76C35.86,25.91,36.17,26.94,36.48,27.98"/>
	<path class="st0" d="M40.36,60.56c-0.18,1.86-0.06,3.91,0.56,5.65c0.11,0.32,0.25,0.63,0.37,0.95c0.08,0.1,0.16,0.21,0.24,0.32
		c0.18,0.22,0.27,0.6,0.29,1.01c1.06,2.56,2.31,5.05,3.45,7.59c0.12-0.41,0.23-0.81,0.25-1.21c0.49-9.9,0.1-19.64-1.1-29.26h-4.48
		C40.52,50.55,40.84,55.53,40.36,60.56"/>
	<path class="st0" d="M52.75,45.59c-0.16,3.17-0.48,6.35-0.59,9.52c-0.23,7.03-0.41,14.06-0.52,21.07
		c-0.04,1.97-0.04,3.92-0.04,5.88h4.53c0.02-2.28,0.04-4.56,0.05-6.85c0.01-4.41-0.17-8.79-0.24-13.19
		c-0.01-0.4,0.14-0.82,0.22-1.23c0.41,0.24,1.06,0.35,1.19,0.73c0.25,0.72,0.28,1.59,0.27,2.4c-0.04,3.22-0.27,6.47-0.16,9.68
		c0.1,2.82,0.05,5.63-0.03,8.46H60c0.25-0.57,0.42-0.95,0.57-1.32c0.18,0.36,0.45,0.66,0.53,1.1c0.01,0.06,0,0.15,0.01,0.22h2.73
		c5.02,0,9.11-4.08,9.11-9.11v-0.03V45.59H52.75z"/>
	<path class="st0" d="M51.23,48.57c0.05,0,0.09-0.01,0.14-0.01c0.06-0.99,0.09-1.99,0.22-2.97h-6.11
		c0.53,5.52,1.03,11.06,1.32,16.64c0.27,5.21-0.29,10.59-0.56,15.89c0,0.03-0.01,0.05-0.01,0.08c0.58,1.29,1.16,2.57,1.74,3.86h2.58
		c0.05-4.66,0.09-9.31,0.18-13.97C50.85,61.6,51.06,55.08,51.23,48.57"/>
	<path class="st0" d="M40.39,74.05c-0.49-0.24-0.81-0.78-1.24-1.14c-4.6-3.84-9.08-7.82-13.84-11.47
		c-6.1-4.69-12.47-8.99-19.2-12.88C4.06,47.36,2.04,46.16,0,44.97v7.66c3.15,1.61,6.21,3.39,9.09,5.55c2.57,1.92,5.37,3.49,8,5.32
		c3.87,2.68,7.66,5.47,11.51,8.16c4.98,3.48,10.01,6.88,14.95,10.41h0.77c-1.11-2.57-2.2-5.15-3.29-7.72
		C40.8,74.24,40.58,74.14,40.39,74.05"/>
	<path class="st0" d="M25.71,59.99c4.63,3.86,9.36,7.59,14.06,11.37c-0.08-0.18-0.15-0.37-0.24-0.55c-0.37-0.9-0.86-1.83-1.19-2.79
		c-3.11-5.72-8.5-9.56-13.92-13.38c-2.78-1.95-5.62-3.81-8.42-5.72C10.66,45.27,5.33,41.6,0,37.94v5.47
		c1.5,0.78,2.98,1.59,4.38,2.51C11.5,50.58,19.15,54.52,25.71,59.99"/>
	<path class="st0" d="M23.59,70.07C15.96,64.44,8.23,59.05,0,54.41v18.54c0,5.03,4.08,9.12,9.12,9.12h19.57
		C22.2,77.35,15.52,72.95,8.8,68.64c-2.05-1.31-4.15-2.51-6.24-3.76c0.12-0.13,0.24-0.25,0.36-0.38c0.49,0.16,1.02,0.24,1.45,0.51
		c5.99,3.59,12.02,7.12,17.93,10.85c3.18,2,6.31,4.06,9.38,6.21h9.09c-0.06-0.04-0.1-0.08-0.15-0.12
		C35.05,77.85,29.16,74.17,23.59,70.07"/>
	<path class="st0" d="M110.39,50.74c-1.87,0-3.49-0.18-4.88-0.55c-1.39-0.37-2.76-0.9-4.13-1.6l-0.44-7.3h0.79l2.67,5.03
		c1.81,1.49,3.7,2.23,5.68,2.23c1.63,0,2.95-0.4,3.93-1.2c0.99-0.8,1.49-1.95,1.49-3.43c0-1.11-0.26-2-0.76-2.69
		c-0.51-0.69-1.29-1.31-2.34-1.88c-1.05-0.57-2.42-1.23-4.11-1.99c-2.04-0.99-3.61-2.06-4.72-3.22c-1.11-1.15-1.66-2.7-1.66-4.66
		c0-1.1,0.28-2.17,0.83-3.19c0.55-1.02,1.29-1.92,2.2-2.71c0.92-0.79,1.95-1.42,3.1-1.88c1.15-0.47,2.34-0.7,3.57-0.7
		c1.46,0,2.82,0.17,4.09,0.5c1.27,0.34,2.49,0.81,3.65,1.42l0.44,7h-0.75l-2.67-4.81c-0.85-0.64-1.63-1.12-2.36-1.44
		c-0.73-0.32-1.56-0.48-2.49-0.48c-1.23,0-2.24,0.41-3.04,1.22c-0.8,0.82-1.2,1.85-1.2,3.11c0,1.31,0.44,2.37,1.31,3.17
		c0.87,0.8,2.33,1.69,4.37,2.65c1.78,0.82,3.24,1.62,4.37,2.41c1.14,0.79,1.98,1.68,2.54,2.67c0.55,0.99,0.83,2.21,0.83,3.67
		c0,1.4-0.3,2.63-0.9,3.7c-0.6,1.07-1.4,1.97-2.41,2.71c-1.01,0.74-2.12,1.31-3.34,1.68C112.84,50.55,111.61,50.74,110.39,50.74"/>
	<path class="st0" d="M124.79,50.3v-0.7l2.19-1.18l9.75-22.83h2.97l9.58,22.65l2.67,1.36v0.7H140.8v-0.7l3.06-1.31l-2.58-6.21h-8.92
		l-2.58,6.26l3.15,1.27v0.7H124.79z M133.28,39.85h7.09l-3.54-8.53L133.28,39.85z"/>
	<polygon class="st0" points="157.78,50.3 157.78,49.6 160.98,48.16 160.98,27.91 157.78,26.51 157.78,25.81 165,25.81 
		179.65,42.69 179.65,27.91 175.63,26.51 175.63,25.81 185.33,25.81 185.33,26.51 182.23,27.91 182.23,50.48 179.69,50.48 
		163.56,32.02 163.56,48.07 167.58,49.6 167.58,50.3 	"/>
	<polygon class="st0" points="196.79,50.3 196.79,49.6 200.77,48.16 200.77,28.04 194.78,28.04 192.2,33.68 191.5,33.68 
		191.5,25.81 215.33,25.81 215.33,33.68 214.64,33.68 211.97,28.04 206.02,28.04 206.02,48.16 210.05,49.6 210.05,50.3 	"/>
	<path class="st0" d="M234.34,50.74c-2.48,0-4.69-0.55-6.63-1.64c-1.94-1.09-3.46-2.6-4.57-4.5c-1.11-1.91-1.66-4.09-1.66-6.54
		c0-2.45,0.55-4.63,1.66-6.56c1.11-1.92,2.63-3.43,4.57-4.53c1.94-1.09,4.15-1.64,6.63-1.64c2.51,0,4.73,0.54,6.67,1.64
		c1.94,1.1,3.47,2.6,4.59,4.53c1.12,1.93,1.68,4.11,1.68,6.56c0,2.45-0.56,4.63-1.68,6.54c-1.12,1.91-2.65,3.41-4.59,4.5
		C239.07,50.19,236.84,50.74,234.34,50.74 M234.99,48.51c2.13,0,3.8-0.87,5.03-2.6c1.22-1.73,1.83-3.99,1.83-6.76
		c0-2.3-0.34-4.32-1.03-6.05c-0.69-1.74-1.63-3.1-2.84-4.09c-1.21-0.99-2.59-1.49-4.13-1.49c-2.13,0-3.82,0.87-5.07,2.6
		c-1.25,1.74-1.88,3.97-1.88,6.71c0,2.28,0.34,4.29,1.03,6.06c0.68,1.77,1.63,3.14,2.84,4.13
		C231.98,48.02,233.39,48.51,234.99,48.51"/>
	<polygon class="st0" points="252.74,50.3 252.74,49.6 255.93,48.16 256.72,27.96 253.4,26.51 253.4,25.81 262.71,25.81 
		270.28,42.82 277.98,25.81 286.89,25.81 286.89,26.51 283.66,27.65 284.27,48.16 287.12,49.6 287.12,50.3 275.96,50.3 275.96,49.6 
		278.89,48.2 278.54,30.32 269.45,50.48 267.87,50.48 259,30.36 258.56,48.2 261.79,49.6 261.79,50.3 	"/>
	<path class="st0" d="M292.99,50.3v-0.7l2.19-1.18l9.75-22.83h2.97l9.57,22.65l2.67,1.36v0.7H309v-0.7l3.06-1.31l-2.58-6.21h-8.92
		l-2.58,6.26l3.15,1.27v0.7H292.99z M301.47,39.85h7.09l-3.54-8.53L301.47,39.85z M306.15,22.53l3.72-7.74h4.29
		c0,0.5-0.11,0.97-0.33,1.42c-0.22,0.45-0.65,0.96-1.29,1.51l-5.6,4.81H306.15z"/>
	<path class="st0" d="M335.1,50.74c-1.87,0-3.49-0.18-4.88-0.55c-1.39-0.37-2.76-0.9-4.13-1.6l-0.44-7.3h0.79l2.67,5.03
		c1.81,1.49,3.7,2.23,5.68,2.23c1.63,0,2.94-0.4,3.94-1.2c0.99-0.8,1.49-1.95,1.49-3.43c0-1.11-0.26-2-0.77-2.69
		c-0.51-0.69-1.29-1.31-2.34-1.88c-1.05-0.57-2.42-1.23-4.11-1.99c-2.04-0.99-3.62-2.06-4.73-3.22c-1.11-1.15-1.66-2.7-1.66-4.66
		c0-1.1,0.28-2.17,0.83-3.19c0.56-1.02,1.29-1.92,2.21-2.71c0.92-0.79,1.95-1.42,3.11-1.88c1.15-0.47,2.34-0.7,3.57-0.7
		c1.46,0,2.82,0.17,4.09,0.5c1.27,0.34,2.49,0.81,3.65,1.42l0.43,7h-0.74l-2.67-4.81c-0.85-0.64-1.63-1.12-2.36-1.44
		c-0.73-0.32-1.56-0.48-2.49-0.48c-1.23,0-2.24,0.41-3.04,1.22c-0.8,0.82-1.2,1.85-1.2,3.11c0,1.31,0.44,2.37,1.31,3.17
		c0.88,0.8,2.33,1.69,4.38,2.65c1.78,0.82,3.23,1.62,4.37,2.41c1.14,0.79,1.98,1.68,2.54,2.67c0.55,0.99,0.83,2.21,0.83,3.67
		c0,1.4-0.3,2.63-0.9,3.7c-0.6,1.07-1.4,1.97-2.41,2.71c-1.01,0.74-2.12,1.31-3.34,1.68C337.55,50.55,336.33,50.74,335.1,50.74"/>
	<path class="st0" d="M0.96,118.09h1.93v5.59c0,0.63,0.07,1.08,0.22,1.37c0.23,0.51,0.73,0.76,1.5,0.76c0.77,0,1.26-0.25,1.49-0.76
		c0.15-0.29,0.22-0.74,0.22-1.37v-5.59h1.93v5.59c0,0.97-0.15,1.72-0.45,2.26c-0.56,0.99-1.62,1.48-3.2,1.48
		c-1.57,0-2.64-0.49-3.2-1.48c-0.3-0.54-0.45-1.29-0.45-2.26V118.09z"/>
	<polygon class="st0" points="12.58,118.09 14.57,118.09 18.18,124.44 18.18,118.09 19.95,118.09 19.95,127.19 18.05,127.19 
		14.35,120.74 14.35,127.19 12.58,127.19 	"/>
	<path class="st0" d="M35.63,118.29c0.64,0.21,1.15,0.59,1.55,1.15c0.32,0.45,0.53,0.94,0.65,1.47c0.12,0.53,0.17,1.03,0.17,1.51
		c0,1.21-0.24,2.23-0.73,3.07c-0.66,1.13-1.68,1.7-3.05,1.7H30.3v-9.1h3.92C34.79,118.1,35.26,118.17,35.63,118.29 M32.15,119.67
		v5.94h1.75c0.9,0,1.53-0.44,1.88-1.33c0.19-0.49,0.29-1.06,0.29-1.73c0-0.93-0.15-1.64-0.44-2.13c-0.29-0.5-0.87-0.74-1.73-0.74
		H32.15z"/>
	<polygon class="st0" points="48.68,119.7 43.87,119.7 43.87,121.63 48.29,121.63 48.29,123.21 43.87,123.21 43.87,125.55 
		48.91,125.55 48.91,127.19 42.01,127.19 42.01,118.09 48.68,118.09 	"/>
	<path class="st0" d="M54.29,124.38c0.06,0.41,0.17,0.73,0.35,0.93c0.31,0.37,0.85,0.56,1.62,0.56c0.46,0,0.83-0.05,1.11-0.15
		c0.54-0.19,0.81-0.54,0.81-1.06c0-0.3-0.13-0.53-0.4-0.7c-0.27-0.16-0.69-0.3-1.26-0.43l-0.99-0.22c-0.97-0.21-1.63-0.45-1.99-0.7
		c-0.61-0.42-0.92-1.08-0.92-1.97c0-0.82,0.3-1.49,0.9-2.03c0.6-0.54,1.48-0.81,2.64-0.81c0.97,0,1.8,0.25,2.48,0.76
		c0.69,0.51,1.04,1.25,1.08,2.21h-1.83c-0.03-0.55-0.28-0.94-0.73-1.17c-0.3-0.15-0.68-0.23-1.13-0.23c-0.5,0-0.9,0.1-1.2,0.3
		c-0.3,0.2-0.45,0.47-0.45,0.83c0,0.32,0.15,0.57,0.44,0.73c0.19,0.11,0.59,0.23,1.21,0.38l1.6,0.38c0.7,0.17,1.22,0.39,1.57,0.66
		c0.54,0.43,0.81,1.05,0.81,1.86c0,0.83-0.32,1.52-0.96,2.07c-0.64,0.55-1.55,0.82-2.72,0.82c-1.2,0-2.14-0.27-2.82-0.81
		s-1.03-1.29-1.03-2.23H54.29z"/>
	<path class="st0" d="M66.47,118.09h2.15l3.22,9.1h-2.06l-0.6-1.87h-3.35l-0.62,1.87h-1.99L66.47,118.09z M66.35,123.75h2.33
		l-1.15-3.58L66.35,123.75z"/>
	<path class="st0" d="M81.36,118.33c0.33,0.14,0.62,0.36,0.85,0.63c0.19,0.23,0.35,0.49,0.46,0.77c0.11,0.28,0.17,0.6,0.17,0.96
		c0,0.43-0.11,0.86-0.33,1.28c-0.22,0.42-0.58,0.71-1.08,0.88c0.42,0.17,0.72,0.41,0.89,0.72c0.17,0.31,0.26,0.78,0.26,1.42v0.61
		c0,0.42,0.02,0.7,0.05,0.85c0.05,0.23,0.17,0.41,0.35,0.52v0.23h-2.1c-0.06-0.2-0.1-0.36-0.12-0.49c-0.05-0.25-0.08-0.52-0.08-0.78
		l-0.01-0.85c-0.01-0.58-0.11-0.97-0.3-1.16c-0.19-0.19-0.55-0.29-1.08-0.29h-1.86v3.57h-1.86v-9.1h4.35
		C80.54,118.11,81.02,118.18,81.36,118.33 M77.43,119.67v2.44h2.05c0.41,0,0.71-0.05,0.91-0.15c0.36-0.17,0.54-0.51,0.54-1.02
		c0-0.55-0.17-0.92-0.52-1.11c-0.19-0.11-0.49-0.16-0.88-0.16H77.43z"/>
	<path class="st0" d="M93.01,118.33c0.33,0.14,0.62,0.36,0.85,0.63c0.19,0.23,0.35,0.49,0.46,0.77c0.11,0.28,0.17,0.6,0.17,0.96
		c0,0.43-0.11,0.86-0.33,1.28c-0.22,0.42-0.58,0.71-1.08,0.88c0.42,0.17,0.72,0.41,0.89,0.72c0.17,0.31,0.26,0.78,0.26,1.42v0.61
		c0,0.42,0.02,0.7,0.05,0.85c0.05,0.23,0.17,0.41,0.35,0.52v0.23h-2.1c-0.06-0.2-0.1-0.36-0.12-0.49c-0.05-0.25-0.08-0.52-0.08-0.78
		l-0.01-0.85c-0.01-0.58-0.11-0.97-0.3-1.16c-0.19-0.19-0.55-0.29-1.08-0.29h-1.86v3.57h-1.86v-9.1h4.35
		C92.2,118.11,92.68,118.18,93.01,118.33 M89.08,119.67v2.44h2.05c0.41,0,0.71-0.05,0.91-0.15c0.36-0.17,0.54-0.51,0.54-1.02
		c0-0.55-0.17-0.92-0.52-1.11c-0.19-0.11-0.49-0.16-0.88-0.16H89.08z"/>
	<path class="st0" d="M105.84,126.38c-0.69,0.71-1.68,1.06-2.98,1.06c-1.3,0-2.29-0.35-2.98-1.06c-0.92-0.87-1.38-2.12-1.38-3.75
		c0-1.67,0.46-2.92,1.38-3.75c0.69-0.71,1.68-1.06,2.98-1.06c1.3,0,2.29,0.35,2.98,1.06c0.92,0.83,1.38,2.09,1.38,3.75
		C107.22,124.26,106.76,125.51,105.84,126.38 M104.65,125c0.44-0.56,0.66-1.35,0.66-2.37c0-1.02-0.22-1.81-0.66-2.37
		c-0.44-0.56-1.04-0.84-1.79-0.84c-0.75,0-1.35,0.28-1.8,0.83c-0.45,0.56-0.67,1.35-0.67,2.37c0,1.02,0.22,1.81,0.67,2.37
		c0.45,0.56,1.05,0.83,1.8,0.83C103.61,125.83,104.21,125.55,104.65,125"/>
	<polygon class="st0" points="111.19,118.09 113.1,118.09 113.1,125.55 117.64,125.55 117.64,127.19 111.19,127.19 	"/>
	<polygon class="st0" points="121.44,118.09 123.34,118.09 123.34,125.55 127.88,125.55 127.88,127.19 121.44,127.19 	"/>
	<path class="st0" d="M138.69,126.38c-0.69,0.71-1.68,1.06-2.98,1.06c-1.3,0-2.29-0.35-2.98-1.06c-0.92-0.87-1.38-2.12-1.38-3.75
		c0-1.67,0.46-2.92,1.38-3.75c0.69-0.71,1.68-1.06,2.98-1.06c1.3,0,2.29,0.35,2.98,1.06c0.92,0.83,1.38,2.09,1.38,3.75
		C140.07,124.26,139.61,125.51,138.69,126.38 M137.51,125c0.44-0.56,0.66-1.35,0.66-2.37c0-1.02-0.22-1.81-0.66-2.37
		c-0.44-0.56-1.04-0.84-1.79-0.84c-0.75,0-1.35,0.28-1.8,0.83c-0.45,0.56-0.67,1.35-0.67,2.37c0,1.02,0.22,1.81,0.67,2.37
		c0.45,0.56,1.05,0.83,1.8,0.83C136.47,125.83,137.06,125.55,137.51,125"/>
	<path class="st0" d="M150.09,118.09h1.93v5.59c0,0.63,0.07,1.08,0.22,1.37c0.23,0.51,0.73,0.76,1.5,0.76
		c0.77,0,1.27-0.25,1.49-0.76c0.15-0.29,0.22-0.74,0.22-1.37v-5.59h1.93v5.59c0,0.97-0.15,1.72-0.45,2.26
		c-0.56,0.99-1.62,1.48-3.2,1.48s-2.64-0.49-3.2-1.48c-0.3-0.54-0.45-1.29-0.45-2.26V118.09z"/>
	<path class="st0" d="M167.57,118.33c0.33,0.14,0.62,0.36,0.85,0.63c0.19,0.23,0.35,0.49,0.46,0.77c0.11,0.28,0.17,0.6,0.17,0.96
		c0,0.43-0.11,0.86-0.33,1.28c-0.22,0.42-0.58,0.71-1.08,0.88c0.42,0.17,0.72,0.41,0.89,0.72c0.17,0.31,0.26,0.78,0.26,1.42v0.61
		c0,0.42,0.02,0.7,0.05,0.85c0.05,0.23,0.17,0.41,0.35,0.52v0.23h-2.1c-0.06-0.2-0.1-0.36-0.12-0.49c-0.05-0.25-0.08-0.52-0.08-0.78
		l-0.01-0.85c-0.01-0.58-0.11-0.97-0.3-1.16c-0.19-0.19-0.55-0.29-1.08-0.29h-1.86v3.57h-1.86v-9.1h4.35
		C166.76,118.11,167.24,118.18,167.57,118.33 M163.64,119.67v2.44h2.05c0.41,0,0.71-0.05,0.91-0.15c0.36-0.17,0.54-0.51,0.54-1.02
		c0-0.55-0.17-0.92-0.52-1.11c-0.2-0.11-0.49-0.16-0.88-0.16H163.64z"/>
	<path class="st0" d="M180.18,119.06c0.28,0.39,0.42,0.85,0.42,1.39c0,0.56-0.14,1-0.42,1.34c-0.16,0.19-0.39,0.36-0.69,0.52
		c0.46,0.17,0.81,0.44,1.05,0.8c0.24,0.37,0.35,0.81,0.35,1.33c0,0.54-0.13,1.02-0.4,1.45c-0.17,0.28-0.39,0.52-0.64,0.72
		c-0.29,0.22-0.63,0.38-1.03,0.46c-0.39,0.08-0.82,0.12-1.29,0.12h-4.1v-9.1h4.4C178.93,118.11,179.72,118.43,180.18,119.06
		 M175.24,119.67v2.01h2.21c0.39,0,0.71-0.07,0.96-0.23c0.25-0.15,0.37-0.42,0.37-0.8c0-0.42-0.16-0.7-0.49-0.84
		c-0.28-0.1-0.64-0.14-1.07-0.14H175.24z M175.24,123.18v2.43h2.21c0.39,0,0.7-0.05,0.92-0.16c0.4-0.2,0.6-0.58,0.6-1.14
		c0-0.47-0.19-0.8-0.58-0.97c-0.22-0.1-0.52-0.15-0.91-0.15H175.24z"/>
	<path class="st0" d="M187.65,118.09h2.15l3.22,9.1h-2.06l-0.6-1.87h-3.35l-0.62,1.87h-1.99L187.65,118.09z M187.53,123.75h2.33
		l-1.15-3.58L187.53,123.75z"/>
	<polygon class="st0" points="196.67,118.09 198.67,118.09 202.28,124.44 202.28,118.09 204.05,118.09 204.05,127.19 202.15,127.19 
		198.44,120.74 198.44,127.19 196.67,127.19 	"/>
	<path class="st0" d="M211.27,115.34l-1.88,1.84h-1.27l1.18-1.84H211.27z M210.09,127.19h-1.89v-9.1h1.89V127.19z"/>
	<path class="st0" d="M215.77,124.38c0.06,0.41,0.17,0.73,0.35,0.93c0.31,0.37,0.85,0.56,1.62,0.56c0.46,0,0.83-0.05,1.12-0.15
		c0.54-0.19,0.81-0.54,0.81-1.06c0-0.3-0.13-0.53-0.4-0.7c-0.27-0.16-0.69-0.3-1.26-0.43l-0.98-0.22c-0.97-0.21-1.63-0.45-1.99-0.7
		c-0.61-0.42-0.92-1.08-0.92-1.97c0-0.82,0.3-1.49,0.9-2.03c0.6-0.54,1.48-0.81,2.64-0.81c0.97,0,1.8,0.25,2.48,0.76
		c0.68,0.51,1.04,1.25,1.08,2.21h-1.83c-0.03-0.55-0.28-0.94-0.73-1.17c-0.3-0.15-0.68-0.23-1.13-0.23c-0.5,0-0.9,0.1-1.2,0.3
		c-0.3,0.2-0.45,0.47-0.45,0.83c0,0.32,0.15,0.57,0.44,0.73c0.19,0.11,0.59,0.23,1.21,0.38l1.6,0.38c0.7,0.17,1.22,0.39,1.57,0.66
		c0.54,0.43,0.81,1.05,0.81,1.86c0,0.83-0.32,1.52-0.96,2.07c-0.64,0.55-1.55,0.82-2.72,0.82c-1.2,0-2.14-0.27-2.82-0.81
		c-0.69-0.54-1.03-1.29-1.03-2.23H215.77z"/>
	<polygon class="st0" points="231.96,118.09 231.96,119.7 229.24,119.7 229.24,127.19 227.33,127.19 227.33,119.7 224.6,119.7 
		224.6,118.09 	"/>
	<rect x="235.45" y="118.09" class="st0" width="1.89" height="9.1"/>
	<path class="st0" d="M242.51,119.04c0.73-0.75,1.66-1.12,2.8-1.12c1.51,0,2.62,0.5,3.32,1.51c0.39,0.56,0.6,1.13,0.62,1.7h-1.9
		c-0.12-0.44-0.28-0.77-0.46-0.99c-0.34-0.39-0.84-0.59-1.51-0.59c-0.68,0-1.21,0.28-1.6,0.84c-0.39,0.56-0.59,1.35-0.59,2.37
		c0,1.02,0.21,1.78,0.62,2.29c0.41,0.51,0.94,0.76,1.57,0.76c0.65,0,1.15-0.22,1.49-0.65c0.19-0.23,0.35-0.59,0.47-1.06h1.89
		c-0.16,0.99-0.58,1.8-1.25,2.42c-0.67,0.62-1.53,0.93-2.57,0.93c-1.3,0-2.31-0.42-3.05-1.26c-0.74-0.84-1.11-2-1.11-3.47
		C241.25,121.13,241.67,119.9,242.51,119.04"/>
	<path class="st0" d="M260.3,126.38c-0.69,0.71-1.68,1.06-2.98,1.06c-1.3,0-2.29-0.35-2.98-1.06c-0.92-0.87-1.38-2.12-1.38-3.75
		c0-1.67,0.46-2.92,1.38-3.75c0.69-0.71,1.68-1.06,2.98-1.06c1.3,0,2.29,0.35,2.98,1.06c0.92,0.83,1.38,2.09,1.38,3.75
		C261.68,124.26,261.22,125.51,260.3,126.38 M259.11,125c0.44-0.56,0.66-1.35,0.66-2.37c0-1.02-0.22-1.81-0.66-2.37
		c-0.44-0.56-1.04-0.84-1.79-0.84c-0.75,0-1.35,0.28-1.8,0.83c-0.45,0.56-0.67,1.35-0.67,2.37c0,1.02,0.22,1.81,0.67,2.37
		c0.45,0.56,1.05,0.83,1.8,0.83C258.07,125.83,258.67,125.55,259.11,125"/>
	<path class="st0" d="M277.02,118.29c0.64,0.21,1.15,0.59,1.55,1.15c0.32,0.45,0.53,0.94,0.65,1.47c0.12,0.53,0.17,1.03,0.17,1.51
		c0,1.21-0.24,2.23-0.73,3.07c-0.66,1.13-1.68,1.7-3.05,1.7h-3.92v-9.1h3.92C276.18,118.1,276.65,118.17,277.02,118.29
		 M273.54,119.67v5.94h1.75c0.9,0,1.53-0.44,1.88-1.33c0.19-0.49,0.29-1.06,0.29-1.73c0-0.93-0.15-1.64-0.44-2.13
		c-0.29-0.5-0.87-0.74-1.73-0.74H273.54z"/>
	<polygon class="st0" points="290.07,119.7 285.26,119.7 285.26,121.63 289.68,121.63 289.68,123.21 285.26,123.21 285.26,125.55 
		290.3,125.55 290.3,127.19 283.4,127.19 283.4,118.09 290.07,118.09 	"/>
	<path class="st0" d="M306.45,123.25c-0.53,0.44-1.29,0.67-2.28,0.67h-1.89v3.27h-1.89v-9.1h3.91c0.9,0,1.62,0.24,2.15,0.7
		c0.54,0.47,0.8,1.2,0.8,2.18C307.25,122.05,306.98,122.81,306.45,123.25 M305,119.98c-0.24-0.2-0.58-0.3-1.01-0.3h-1.71v2.68h1.71
		c0.43,0,0.77-0.11,1.01-0.33c0.24-0.22,0.36-0.56,0.36-1.04S305.24,120.18,305,119.98"/>
	<rect x="311.15" y="118.09" class="st0" width="1.89" height="9.1"/>
	<polygon class="st0" points="317.34,118.09 319.24,118.09 319.24,125.55 323.78,125.55 323.78,127.19 317.34,127.19 	"/>
	<path class="st0" d="M330.19,118.09h2.15l3.22,9.1h-2.06l-0.6-1.87h-3.35l-0.62,1.87h-1.99L330.19,118.09z M330.06,123.75h2.33
		l-1.15-3.58L330.06,123.75z"/>
	<polygon class="st0" points="343.27,118.09 345.43,118.09 342.38,123.78 342.38,127.19 340.48,127.19 340.48,123.78 337.33,118.09 
		339.58,118.09 341.46,122.06 	"/>
</g>
</svg>
